<svg viewBox="0 0 960 150" fill="none" xmlns="http://www.w3.org/2000/svg">
<path d="M959.5 12.8C959.5 10.5515 959.5 8.89527 959.393 7.58633C959.286 6.28324 959.077 5.36848 958.683 4.59507C957.963 3.18386 956.816 2.0365 955.405 1.31745C954.632 0.923377 953.717 0.7138 952.414 0.607332C951.105 0.500388 949.448 0.499999 947.2 0.499999L12.8 0.499917C10.5515 0.499917 8.89526 0.500306 7.5863 0.60725C6.2832 0.713717 5.36847 0.923294 4.59503 1.31737C3.18384 2.03642 2.0365 3.18377 1.31744 4.59498C0.9234 5.3684 0.713806 6.28315 0.60736 7.58625C0.500365 8.89518 0.499999 10.5515 0.499999 12.7999L0.499988 137.2C0.499988 139.448 0.500354 141.105 0.607348 142.414C0.713794 143.717 0.923388 144.632 1.31743 145.405C2.03649 146.816 3.18382 147.964 4.59502 148.683C5.36846 149.077 6.28319 149.286 7.58629 149.393C8.89525 149.5 10.5515 149.5 12.8 149.5L947.2 149.5C949.448 149.5 951.105 149.5 952.414 149.393C953.717 149.286 954.632 149.077 955.405 148.683L955.632 149.128L955.405 148.683C956.816 147.964 957.963 146.816 958.683 145.405C959.077 144.632 959.286 143.717 959.393 142.414C959.5 141.105 959.5 139.449 959.5 137.2L959.5 12.8Z" fill="url(#paint0_linear)" stroke="url(#paint1_linear)"/>
<defs>
<linearGradient id="paint0_linear" x1="480" y1="-4.19629e-05" x2="480" y2="150" gradientUnits="userSpaceOnUse">
<stop stop-color="#F7ECFF" stop-opacity="0.02"/>
<stop offset="1" stop-color="#F7ECFF" stop-opacity="0.1"/>
</linearGradient>
<linearGradient id="paint1_linear" x1="480" y1="-4.19629e-05" x2="480" y2="150" gradientUnits="userSpaceOnUse">
<stop stop-color="#804DF6"/>
<stop offset="0.322917" stop-color="#A752FB" stop-opacity="0.6"/>
<stop offset="0.953125" stop-color="#CA8EFE" stop-opacity="0"/>
</linearGradient>
</defs>
</svg>
