<svg viewBox="0 0 361 271" fill="none" xmlns="http://www.w3.org/2000/svg">
<path d="M348.2 0.499997L12.8 0.499919C10.5515 0.499919 8.89526 0.500307 7.58633 0.607251C6.28323 0.713718 5.3685 0.923295 4.59506 1.31737C3.18387 2.03642 2.0365 3.18377 1.31744 4.59499C0.92337 5.3684 0.713806 6.28315 0.60733 7.58625C0.500396 8.89518 0.5 10.5515 0.5 12.7999L0.499992 258.2C0.499991 260.448 0.500388 262.104 0.607322 263.413C0.713797 264.717 0.923362 265.631 1.31744 266.405C2.03649 267.816 3.18386 268.963 4.59505 269.682C5.36849 270.076 6.28322 270.286 7.58633 270.392C8.89525 270.499 10.5515 270.5 12.8 270.5L348.2 270.5C350.448 270.5 352.105 270.499 353.414 270.393C354.717 270.286 355.632 270.076 356.405 269.682C357.816 268.963 358.963 267.816 359.683 266.405C360.077 265.631 360.286 264.717 360.393 263.414C360.5 262.105 360.5 260.448 360.5 258.2L360.5 12.8C360.5 10.5515 360.5 8.89526 360.393 7.58633C360.286 6.28323 360.077 5.36848 359.683 4.59507C358.963 3.18386 357.816 2.0365 356.405 1.31745C355.632 0.923376 354.717 0.713799 353.414 0.607331C352.105 0.500387 350.448 0.499998 348.2 0.499997Z" fill="url(#paint0_linear)" stroke="url(#paint1_linear)"/>
<defs>
<linearGradient id="paint0_linear" x1="180.5" y1="-4.19629e-05" x2="180.5" y2="271" gradientUnits="userSpaceOnUse">
<stop stop-color="#F7ECFF" stop-opacity="0.02"/>
<stop offset="1" stop-color="#F7ECFF" stop-opacity="0.1"/>
</linearGradient>
<linearGradient id="paint1_linear" x1="180.5" y1="-4.19629e-05" x2="180.5" y2="271" gradientUnits="userSpaceOnUse">
<stop stop-color="#804DF6"/>
<stop offset="0.322917" stop-color="#A752FB" stop-opacity="0.6"/>
<stop offset="0.953125" stop-color="#CA8EFE" stop-opacity="0"/>
</linearGradient>
</defs>
</svg>
