<svg width="305" height="298" viewBox="0 0 305 298" fill="none" xmlns="http://www.w3.org/2000/svg">
<mask id="mask0" mask-type="alpha" maskUnits="userSpaceOnUse" x="0" y="0" width="305" height="298">
<path fill-rule="evenodd" clip-rule="evenodd" d="M272.657 241.526C292.904 216.052 305 183.812 305 148.748C305 147.568 304.986 146.392 304.959 145.218C304.945 144.627 302.392 144.036 299.842 143.446C297.307 142.859 294.775 142.274 294.748 141.689C294.721 141.098 297.212 140.509 299.701 139.921C302.188 139.333 304.671 138.745 304.63 138.159C304.594 137.651 303.792 137.144 302.991 136.637C302.198 136.135 301.406 135.634 301.361 135.134C301.323 134.713 302.038 134.293 302.752 133.873C303.468 133.452 304.183 133.032 304.138 132.613C303.698 128.527 303.094 124.491 302.332 120.511C302.218 119.918 300.831 119.58 299.444 119.243C298.068 118.908 296.694 118.573 296.567 117.99C296.464 117.514 297.617 116.788 298.769 116.063C299.924 115.336 301.077 114.609 300.965 114.136C296.092 93.6235 286.985 74.7503 274.617 58.4907C273.821 57.4437 272.732 57.1894 271.635 56.9331C270.573 56.6853 269.504 56.4356 268.684 55.4653C268.045 54.7108 267.659 53.2362 267.27 51.7536C266.866 50.2108 266.46 48.6593 265.765 47.9019C256.349 37.6378 245.516 28.6948 233.575 21.3828C232.657 20.8203 230.909 21.4219 229.162 22.0233C227.445 22.6142 225.729 23.2049 224.801 22.6904C223.945 22.2153 223.505 20.5756 223.065 18.9325C222.615 17.2566 222.165 15.5773 221.27 15.1269C220.443 14.7104 219.868 14.4038 219.363 14.1341C218.45 13.6472 217.763 13.2808 216.227 12.6058C215.304 12.2003 213.864 12.902 212.423 13.604C211.005 14.2948 209.587 14.9858 208.661 14.6227C207.915 14.3303 207.539 12.8393 207.163 11.3464C206.783 9.83424 206.402 8.32016 205.634 8.04802C199.903 6.01507 194.01 4.3222 187.98 2.99369C185.838 2.77067 182.97 2.88864 179.926 3.01383C176.521 3.1539 172.896 3.303 169.822 2.99369C167.726 2.78272 165.168 2.21802 162.529 1.63514C158.904 0.834709 155.124 0 152.168 0C148.257 0 144.388 0.149248 140.567 0.442384C139.803 0.501031 139.295 2.00402 138.788 3.50519C138.287 4.99071 137.785 6.47445 137.037 6.55499C136.278 6.63659 135.271 5.30807 134.265 3.98132C133.253 2.64727 132.243 1.31502 131.488 1.4199C130.103 1.61249 129.249 2.61051 128.391 3.61199C127.567 4.57497 126.74 5.54116 125.436 5.79756C124.352 6.01048 122.787 5.50546 121.218 4.99925C119.592 4.4748 117.963 3.94907 116.861 4.21914C112.803 5.21389 109.074 6.73038 105.318 8.25824C103.798 8.87644 102.273 9.4965 100.72 10.0846C99.9967 10.3586 100.229 13.1282 100.461 15.8949C100.692 18.6427 100.923 21.3877 100.216 21.6819C99.4411 22.0044 97.6839 20.0737 95.9283 18.1448C94.1654 16.2079 92.4042 14.2729 91.6411 14.6227C89.7258 15.5007 88.2583 17.0305 86.7897 18.5615C85.486 19.9206 84.1815 21.2806 82.562 22.1861C81.4777 22.7925 80.0423 22.8919 78.6071 22.9914C77.0993 23.0959 75.5918 23.2004 74.4917 23.8925C69.3877 27.1036 64.9082 30.758 59.8643 37.313C58.2874 38.6004 56.7387 39.2905 55.2191 39.9677C53.4701 40.747 51.7598 41.5092 50.0894 43.1449C42.5764 50.5016 35.872 58.6671 30.105 67.5217C29.5836 68.3222 30.7195 69.8213 31.858 71.3237C32.9893 72.8166 34.1231 74.3128 33.6357 75.1303C33.1229 75.9905 31.0058 76.1792 28.8843 76.3684C26.7282 76.5606 24.5676 76.7532 24.0821 77.6514C20.8567 83.6181 18.0325 89.8473 15.6432 96.308C15.3487 97.1041 16.2074 98.3485 17.0668 99.5941C17.9176 100.827 18.7691 102.061 18.5039 102.863C18.0524 104.228 16.5288 105.179 15.0034 106.132C13.4174 107.122 11.8295 108.114 11.4424 109.573C10.5268 113.023 11.1625 117.579 11.7921 122.089C12.3169 125.85 12.8374 129.58 12.4512 132.613C12.0716 135.593 10.7381 137.844 9.41903 140.07C7.89914 142.635 6.39844 145.168 6.39844 148.748C6.39844 156.637 7.01078 164.384 8.19054 171.942C9.07366 177.601 10.2747 183.153 11.7749 188.582C12.0118 189.439 12.8234 190.035 13.6352 190.631C14.4266 191.211 15.2182 191.792 15.4775 192.616C15.8013 193.644 15.6049 194.909 15.4085 196.175C15.2041 197.492 14.9996 198.809 15.3822 199.858C24.5437 224.987 40.2676 246.963 60.4812 263.712C61.2133 264.319 62.7196 264.022 64.2258 263.726C65.7086 263.434 67.1912 263.142 67.9346 263.712C68.5946 264.219 68.511 265.592 68.4274 266.964C68.3428 268.353 68.2583 269.741 68.9434 270.23C78.7222 277.222 89.3805 283.063 100.72 287.555C101.816 287.989 103.306 287.493 104.797 286.996C106.249 286.513 107.701 286.029 108.791 286.403C110.091 286.848 111.037 288.132 111.984 289.417C112.971 290.756 113.958 292.096 115.348 292.485C128.183 296.078 141.716 298 155.699 298C158.919 298 162.114 297.898 165.283 297.697C165.875 297.66 166.212 296.113 166.549 294.568C166.885 293.031 167.22 291.496 167.805 291.445C168.394 291.394 169.234 292.831 170.073 294.267C170.915 295.708 171.757 297.148 172.344 297.083C181.174 296.104 189.772 294.355 198.068 291.905C198.663 291.729 199.001 290.31 199.338 288.894C199.673 287.489 200.008 286.087 200.59 285.898C201.058 285.748 201.777 286.821 202.494 287.894C203.213 288.968 203.931 290.041 204.396 289.881C221.273 284.062 236.781 275.303 250.305 264.217C251.222 263.465 251.733 262.302 252.244 261.138C252.73 260.03 253.218 258.921 254.056 258.166C254.894 257.412 256.082 257.012 257.271 256.612C258.521 256.191 259.771 255.77 260.613 254.938C262.536 253.04 264.407 251.09 266.225 249.09C266.754 248.508 266.1 247.161 265.444 245.812C264.793 244.471 264.141 243.129 264.648 242.535C265.21 241.877 266.922 241.96 268.635 242.044C270.372 242.128 272.111 242.213 272.657 241.526ZM231.416 4.25709C232.005 4.25709 232.482 3.78059 232.482 3.1928C232.482 2.60501 232.005 2.12852 231.416 2.12852C230.827 2.12852 230.35 2.60501 230.35 3.1928C230.35 3.78059 230.827 4.25709 231.416 4.25709ZM218.086 10.6388C219.558 10.6388 220.752 9.44758 220.752 7.97811C220.752 6.50863 219.558 5.31739 218.086 5.31739C216.613 5.31739 215.42 6.50863 215.42 7.97811C215.42 9.44758 216.613 10.6388 218.086 10.6388ZM237.815 18.0925C238.993 18.0925 239.948 17.1395 239.948 15.9639C239.948 14.7883 238.993 13.8354 237.815 13.8354C236.637 13.8354 235.682 14.7883 235.682 15.9639C235.682 17.1395 236.637 18.0925 237.815 18.0925ZM275.14 47.3673C275.14 48.8368 273.946 50.0281 272.474 50.0281C271.001 50.0281 269.808 48.8368 269.808 47.3673C269.808 45.8979 271.001 44.7066 272.474 44.7066C273.946 44.7066 275.14 45.8979 275.14 47.3673ZM21.3287 69.1751C22.5066 69.1751 23.4615 68.2221 23.4615 67.0465C23.4615 65.871 22.5066 64.918 21.3287 64.918C20.1507 64.918 19.1958 65.871 19.1958 67.0465C19.1958 68.2221 20.1507 69.1751 21.3287 69.1751ZM3.1993 130.905C4.96623 130.905 6.3986 129.476 6.3986 127.712C6.3986 125.949 4.96623 124.52 3.1993 124.52C1.43238 124.52 0 125.949 0 127.712C0 129.476 1.43238 130.905 3.1993 130.905ZM268.741 31.9278C268.741 33.6912 267.309 35.1207 265.542 35.1207C263.775 35.1207 262.343 33.6912 262.343 31.9278C262.343 30.1645 263.775 28.735 265.542 28.735C267.309 28.735 268.741 30.1645 268.741 31.9278ZM281.539 34.0602C281.539 34.648 281.061 35.1245 280.472 35.1245C279.883 35.1245 279.406 34.648 279.406 34.0602C279.406 33.4724 279.883 32.9959 280.472 32.9959C281.061 32.9959 281.539 33.4724 281.539 34.0602ZM63.9855 270.864C63.9855 272.333 62.7918 273.525 61.3194 273.525C59.847 273.525 58.6533 272.333 58.6533 270.864C58.6533 269.394 59.847 268.203 61.3194 268.203C62.7918 268.203 63.9855 269.394 63.9855 270.864ZM25.5947 57.4684C25.0057 57.4684 24.5283 56.9919 24.5283 56.4041C24.5283 55.8163 25.0057 55.3398 25.5947 55.3398C26.1837 55.3398 26.6611 55.8163 26.6611 56.4041C26.6611 56.9919 26.1837 57.4684 25.5947 57.4684ZM49.0561 271.392C49.0561 271.98 49.5336 272.457 50.1225 272.457C50.7115 272.457 51.189 271.98 51.189 271.392C51.189 270.805 50.7115 270.328 50.1225 270.328C49.5336 270.328 49.0561 270.805 49.0561 271.392ZM8.53122 102.168C7.94225 102.168 7.46479 101.691 7.46479 101.103C7.46479 100.516 7.94225 100.039 8.53122 100.039C9.1202 100.039 9.59766 100.516 9.59766 101.103C9.59766 101.691 9.1202 102.168 8.53122 102.168ZM9.59809 63.8573C9.59809 64.445 10.0755 64.9215 10.6645 64.9215C11.2535 64.9215 11.731 64.445 11.731 63.8573C11.731 63.2695 11.2535 62.793 10.6645 62.793C10.0755 62.793 9.59809 63.2695 9.59809 63.8573ZM62.9199 283.104C62.3309 283.104 61.8535 282.628 61.8535 282.04C61.8535 281.452 62.3309 280.976 62.9199 280.976C63.5089 280.976 63.9863 281.452 63.9863 282.04C63.9863 282.628 63.5089 283.104 62.9199 283.104ZM18.1294 75.0321C18.1294 75.326 18.3681 75.5643 18.6626 75.5643C18.9571 75.5643 19.1958 75.326 19.1958 75.0321C19.1958 74.7383 18.9571 74.5 18.6626 74.5C18.3681 74.5 18.1294 74.7383 18.1294 75.0321ZM275.213 250.736C274.051 250.543 272.952 251.327 272.758 252.486C272.565 253.646 273.35 254.743 274.512 254.936C275.674 255.129 276.773 254.345 276.966 253.186C277.16 252.026 276.375 250.93 275.213 250.736ZM269.954 262.803C270.051 262.223 269.658 261.675 269.077 261.578C268.496 261.482 267.947 261.874 267.85 262.453C267.753 263.033 268.146 263.582 268.727 263.678C269.308 263.775 269.857 263.383 269.954 262.803ZM285.031 256.681C285.612 256.777 286.005 257.326 285.908 257.905C285.811 258.485 285.262 258.877 284.681 258.78C284.1 258.684 283.707 258.135 283.804 257.556C283.901 256.976 284.45 256.584 285.031 256.681ZM279.332 245.482C279.38 245.192 279.184 244.918 278.893 244.869C278.603 244.821 278.328 245.017 278.28 245.307C278.231 245.597 278.428 245.871 278.718 245.919C279.009 245.968 279.283 245.772 279.332 245.482Z" fill="url(#paint0_linear)"/>
</mask>
<g mask="url(#mask0)">
<rect x="-122.949" y="-53.5508" width="550.898" height="412.341" fill="url(#paint1_linear)"/>
</g>
<defs>
<linearGradient id="paint0_linear" x1="152.5" y1="0" x2="152.5" y2="298" gradientUnits="userSpaceOnUse">
<stop/>
<stop offset="1"/>
</linearGradient>
<linearGradient id="paint1_linear" x1="152.5" y1="-53.5508" x2="152.5" y2="358.79" gradientUnits="userSpaceOnUse">
<stop/>
<stop offset="1"/>
</linearGradient>
</defs>
</svg>
